<?xml version="1.0" encoding="UTF-8" standalone="no"?>
<!DOCTYPE svg PUBLIC "-//W3C//DTD SVG 1.1//EN"
 "http://www.w3.org/Graphics/SVG/1.1/DTD/svg11.dtd">
<!-- Generated by graphviz version 9.0.0 (20230911.1827)
 -->
<!-- Title: Lexon Pages: 1 -->
<svg width="1793pt" height="1693pt"
 viewBox="0.00 0.00 1793.10 1693.16" xmlns="http://www.w3.org/2000/svg" xmlns:xlink="http://www.w3.org/1999/xlink">
<g id="graph0" class="graph" transform="scale(1 1) rotate(0) translate(4 1689.16)">
<title>Lexon</title>
<polygon fill="lightblue" stroke="none" points="-4,4 -4,-1689.16 1789.1,-1689.16 1789.1,4 -4,4"/>
<!-- Leave -->
<g id="node1" class="node">
<title>Leave</title>
<ellipse fill="white" stroke="black" cx="835.67" cy="-1332" rx="33.44" ry="18"/>
<text text-anchor="middle" x="835.67" y="-1326.95" font-family="Times,serif" font-size="14.00">Leave</text>
</g>
<!-- Pay Out and Terminate -->
<g id="node2" class="node">
<title>Pay Out and Terminate</title>
<ellipse fill="white" stroke="black" cx="769.83" cy="-1417.8" rx="97.41" ry="18"/>
<text text-anchor="middle" x="769.83" y="-1412.75" font-family="Times,serif" font-size="14.00">Pay Out and Terminate</text>
</g>
<!-- Leave&#45;&gt;Pay Out and Terminate -->
<g id="edge1" class="edge">
<title>Leave&#45;&gt;Pay Out and Terminate</title>
<path fill="none" stroke="black" d="M822.66,-1348.95C813.53,-1360.86 801.11,-1377.03 790.62,-1390.71"/>
<polygon fill="black" stroke="black" points="787.95,-1388.44 784.64,-1398.5 793.5,-1392.7 787.95,-1388.44"/>
</g>
<!-- RECITAL: upgrade initiative -->
<g id="node3" class="node">
<title>RECITAL: upgrade initiative</title>
<ellipse fill="white" stroke="black" cx="1565.59" cy="-169.38" rx="119.93" ry="18"/>
<text text-anchor="middle" x="1565.59" y="-164.33" font-family="Times,serif" font-size="14.00">RECITAL: upgrade initiative</text>
</g>
<!-- Amended Bylaws Proposal -->
<g id="node4" class="node">
<title>Amended Bylaws Proposal</title>
<ellipse fill="white" stroke="black" cx="1672.84" cy="-125.38" rx="112.26" ry="18"/>
<text text-anchor="middle" x="1672.84" y="-120.33" font-family="Times,serif" font-size="14.00">Amended Bylaws Proposal</text>
</g>
<!-- RECITAL: upgrade initiative&#45;&gt;Amended Bylaws Proposal -->
<g id="edge2" class="edge">
<title>RECITAL: upgrade initiative&#45;&gt;Amended Bylaws Proposal</title>
<path fill="none" stroke="black" d="M1607.67,-152.12C1612.03,-150.33 1616.49,-148.5 1620.94,-146.67"/>
<polygon fill="black" stroke="black" points="1621.91,-150.06 1629.83,-143.02 1619.25,-143.58 1621.91,-150.06"/>
</g>
<!-- Initiate The Election Process -->
<g id="node5" class="node">
<title>Initiate The Election Process</title>
<ellipse fill="white" stroke="black" cx="1449.8" cy="-217.08" rx="117.37" ry="18"/>
<text text-anchor="middle" x="1449.8" y="-212.03" font-family="Times,serif" font-size="14.00">Initiate The Election Process</text>
</g>
<!-- RECITAL: upgrade initiative&#45;&gt;Initiate The Election Process -->
<g id="edge3" class="edge">
<title>RECITAL: upgrade initiative&#45;&gt;Initiate The Election Process</title>
<path fill="none" stroke="black" d="M1523.78,-186.6C1516.73,-189.51 1509.34,-192.55 1502.06,-195.55"/>
<polygon fill="black" stroke="black" points="1500.85,-192.26 1492.94,-199.31 1503.52,-198.74 1500.85,-192.26"/>
</g>
<!-- Enable Voting -->
<g id="node30" class="node">
<title>Enable Voting</title>
<ellipse fill="white" stroke="black" cx="1335.23" cy="-264.39" rx="63.12" ry="18"/>
<text text-anchor="middle" x="1335.23" y="-259.34" font-family="Times,serif" font-size="14.00">Enable Voting</text>
</g>
<!-- Initiate The Election Process&#45;&gt;Enable Voting -->
<g id="edge27" class="edge">
<title>Initiate The Election Process&#45;&gt;Enable Voting</title>
<path fill="none" stroke="black" d="M1408.11,-234.29C1399.75,-237.75 1390.9,-241.4 1382.36,-244.93"/>
<polygon fill="black" stroke="black" points="1381.08,-241.67 1373.17,-248.72 1383.75,-248.14 1381.08,-241.67"/>
</g>
<!-- Vote -->
<g id="node6" class="node">
<title>Vote</title>
<ellipse fill="white" stroke="black" cx="453.29" cy="-592.45" rx="27.81" ry="18"/>
<text text-anchor="middle" x="453.29" y="-587.4" font-family="Times,serif" font-size="14.00">Vote</text>
</g>
<!-- Count -->
<g id="node7" class="node">
<title>Count</title>
<ellipse fill="white" stroke="black" cx="482.33" cy="-292.55" rx="33.44" ry="18"/>
<text text-anchor="middle" x="482.33" y="-287.5" font-family="Times,serif" font-size="14.00">Count</text>
</g>
<!-- Vote&#45;&gt;Count -->
<g id="edge4" class="edge">
<title>Vote&#45;&gt;Count</title>
<path fill="none" stroke="black" d="M455.06,-574.14C459.92,-523.95 473.49,-383.8 479.46,-322.22"/>
<polygon fill="black" stroke="black" points="482.92,-322.8 480.4,-312.51 475.95,-322.12 482.92,-322.8"/>
</g>
<!-- End of Trading -->
<g id="node8" class="node">
<title>End of Trading</title>
<ellipse fill="white" stroke="black" cx="1153.58" cy="-1366.74" rx="67.22" ry="18"/>
<text text-anchor="middle" x="1153.58" y="-1361.69" font-family="Times,serif" font-size="14.00">End of Trading</text>
</g>
<!-- Distribute Gains -->
<g id="node9" class="node">
<title>Distribute Gains</title>
<ellipse fill="white" stroke="black" cx="1198.64" cy="-1198.63" rx="71.82" ry="18"/>
<text text-anchor="middle" x="1198.64" y="-1193.58" font-family="Times,serif" font-size="14.00">Distribute Gains</text>
</g>
<!-- End of Trading&#45;&gt;Distribute Gains -->
<g id="edge5" class="edge">
<title>End of Trading&#45;&gt;Distribute Gains</title>
<path fill="none" stroke="black" d="M1158.49,-1348.43C1166.27,-1319.38 1181.53,-1262.47 1190.83,-1227.77"/>
<polygon fill="black" stroke="black" points="1194.14,-1228.95 1193.35,-1218.38 1187.38,-1227.14 1194.14,-1228.95"/>
</g>
<!-- Log Results -->
<g id="node10" class="node">
<title>Log Results</title>
<ellipse fill="white" stroke="black" cx="1004.45" cy="-1429.48" rx="55.45" ry="18"/>
<text text-anchor="middle" x="1004.45" y="-1424.43" font-family="Times,serif" font-size="14.00">Log Results</text>
</g>
<!-- End of Trading&#45;&gt;Log Results -->
<g id="edge6" class="edge">
<title>End of Trading&#45;&gt;Log Results</title>
<path fill="none" stroke="black" d="M1116.71,-1382.25C1096.35,-1390.82 1070.89,-1401.52 1049.37,-1410.58"/>
<polygon fill="black" stroke="black" points="1048.1,-1407.32 1040.24,-1414.42 1050.81,-1413.77 1048.1,-1407.32"/>
</g>
<!-- Payment -->
<g id="node11" class="node">
<title>Payment</title>
<ellipse fill="white" stroke="black" cx="1116.65" cy="-1514.92" rx="43.67" ry="18"/>
<text text-anchor="middle" x="1116.65" y="-1509.87" font-family="Times,serif" font-size="14.00">Payment</text>
</g>
<!-- End of Trading&#45;&gt;Payment -->
<g id="edge7" class="edge">
<title>End of Trading&#45;&gt;Payment</title>
<path fill="none" stroke="black" d="M1144.16,-1384.97C1135.37,-1410.14 1123.76,-1455.79 1118.34,-1485.74"/>
<polygon fill="black" stroke="black" points="1114.95,-1484.82 1116.78,-1495.26 1121.86,-1485.96 1114.95,-1484.82"/>
</g>
<!-- Draft Fee -->
<g id="node45" class="node">
<title>Draft Fee</title>
<ellipse fill="white" stroke="black" cx="1104.07" cy="-1058.86" rx="46.23" ry="18"/>
<text text-anchor="middle" x="1104.07" y="-1053.81" font-family="Times,serif" font-size="14.00">Draft Fee</text>
</g>
<!-- Distribute Gains&#45;&gt;Draft Fee -->
<g id="edge43" class="edge">
<title>Distribute Gains&#45;&gt;Draft Fee</title>
<path fill="none" stroke="black" d="M1186.47,-1180.65C1170.14,-1156.51 1141,-1113.44 1122.11,-1085.52"/>
<polygon fill="black" stroke="black" points="1125.25,-1083.91 1116.74,-1077.59 1119.45,-1087.83 1125.25,-1083.91"/>
</g>
<!-- Support Share -->
<g id="node46" class="node">
<title>Support Share</title>
<ellipse fill="white" stroke="black" cx="1358.77" cy="-1251.18" rx="63.63" ry="18"/>
<text text-anchor="middle" x="1358.77" y="-1246.13" font-family="Times,serif" font-size="14.00">Support Share</text>
</g>
<!-- Distribute Gains&#45;&gt;Support Share -->
<g id="edge44" class="edge">
<title>Distribute Gains&#45;&gt;Support Share</title>
<path fill="none" stroke="black" d="M1242.82,-1213.13C1262.36,-1219.54 1285.49,-1227.13 1305.94,-1233.84"/>
<polygon fill="black" stroke="black" points="1304.63,-1237.1 1315.23,-1236.89 1306.82,-1230.45 1304.63,-1237.1"/>
</g>
<!-- Maintenance Share -->
<g id="node47" class="node">
<title>Maintenance Share</title>
<ellipse fill="white" stroke="black" cx="1033.35" cy="-1164.43" rx="82.57" ry="18"/>
<text text-anchor="middle" x="1033.35" y="-1159.38" font-family="Times,serif" font-size="14.00">Maintenance Share</text>
</g>
<!-- Distribute Gains&#45;&gt;Maintenance Share -->
<g id="edge45" class="edge">
<title>Distribute Gains&#45;&gt;Maintenance Share</title>
<path fill="none" stroke="black" d="M1142.68,-1187.05C1130.59,-1184.55 1117.63,-1181.87 1105.03,-1179.26"/>
<polygon fill="black" stroke="black" points="1106.06,-1175.9 1095.55,-1177.3 1104.64,-1182.75 1106.06,-1175.9"/>
</g>
<!-- Reserve Share -->
<g id="node48" class="node">
<title>Reserve Share</title>
<ellipse fill="white" stroke="black" cx="1351.17" cy="-1125.26" rx="64.15" ry="18"/>
<text text-anchor="middle" x="1351.17" y="-1120.21" font-family="Times,serif" font-size="14.00">Reserve Share</text>
</g>
<!-- Distribute Gains&#45;&gt;Reserve Share -->
<g id="edge46" class="edge">
<title>Distribute Gains&#45;&gt;Reserve Share</title>
<path fill="none" stroke="black" d="M1232.49,-1182.35C1254.74,-1171.65 1284.05,-1157.55 1307.97,-1146.04"/>
<polygon fill="black" stroke="black" points="1309.34,-1149.26 1316.84,-1141.77 1306.31,-1142.96 1309.34,-1149.26"/>
</g>
<!-- Trader Fee -->
<g id="node49" class="node">
<title>Trader Fee</title>
<ellipse fill="white" stroke="black" cx="1241.84" cy="-1040" rx="51.35" ry="18"/>
<text text-anchor="middle" x="1241.84" y="-1034.95" font-family="Times,serif" font-size="14.00">Trader Fee</text>
</g>
<!-- Distribute Gains&#45;&gt;Trader Fee -->
<g id="edge47" class="edge">
<title>Distribute Gains&#45;&gt;Trader Fee</title>
<path fill="none" stroke="black" d="M1203.6,-1180.44C1211.02,-1153.18 1225.09,-1101.5 1233.94,-1069.01"/>
<polygon fill="black" stroke="black" points="1237.29,-1070.01 1236.54,-1059.45 1230.54,-1068.17 1237.29,-1070.01"/>
</g>
<!-- Log Results&#45;&gt;Payment -->
<g id="edge30" class="edge">
<title>Log Results&#45;&gt;Payment</title>
<path fill="none" stroke="black" d="M1026.61,-1446.36C1043.77,-1459.42 1067.71,-1477.65 1086.59,-1492.03"/>
<polygon fill="black" stroke="black" points="1084.39,-1494.75 1094.46,-1498.03 1088.63,-1489.18 1084.39,-1494.75"/>
</g>
<!-- Payment&#45;&gt;End of Trading -->
<g id="edge8" class="edge">
<title>Payment&#45;&gt;End of Trading</title>
<path fill="none" stroke="black" d="M1125.96,-1496.99C1134.75,-1471.92 1146.41,-1426.11 1151.86,-1396.05"/>
<polygon fill="black" stroke="black" points="1155.26,-1396.92 1153.43,-1386.48 1148.36,-1395.78 1155.26,-1396.92"/>
</g>
<!-- Top Up -->
<g id="node12" class="node">
<title>Top Up</title>
<ellipse fill="white" stroke="black" cx="1087.69" cy="-1667.16" rx="39.58" ry="18"/>
<text text-anchor="middle" x="1087.69" y="-1662.11" font-family="Times,serif" font-size="14.00">Top Up</text>
</g>
<!-- Top Up&#45;&gt;Payment -->
<g id="edge9" class="edge">
<title>Top Up&#45;&gt;Payment</title>
<path fill="none" stroke="black" d="M1091.19,-1648.8C1096.12,-1622.85 1105.19,-1575.19 1111.06,-1544.29"/>
<polygon fill="black" stroke="black" points="1114.43,-1545.32 1112.86,-1534.84 1107.55,-1544.01 1114.43,-1545.32"/>
</g>
<!-- RECITAL: membership -->
<g id="node13" class="node">
<title>RECITAL: membership</title>
<ellipse fill="white" stroke="black" cx="371.5" cy="-945.59" rx="101.51" ry="18"/>
<text text-anchor="middle" x="371.5" y="-940.54" font-family="Times,serif" font-size="14.00">RECITAL: membership</text>
</g>
<!-- RECITAL: membership&#45;&gt;Vote -->
<g id="edge22" class="edge">
<title>RECITAL: membership&#45;&gt;Vote</title>
<path fill="none" stroke="black" d="M375.67,-927.59C388.93,-870.32 430.24,-691.98 446.56,-621.51"/>
<polygon fill="black" stroke="black" points="449.94,-622.42 448.79,-611.89 443.12,-620.84 449.94,-622.42"/>
</g>
<!-- Accepted Capital Offer -->
<g id="node14" class="node">
<title>Accepted Capital Offer</title>
<ellipse fill="white" stroke="black" cx="205.18" cy="-1218.28" rx="97.41" ry="18"/>
<text text-anchor="middle" x="205.18" y="-1213.23" font-family="Times,serif" font-size="14.00">Accepted Capital Offer</text>
</g>
<!-- RECITAL: membership&#45;&gt;Accepted Capital Offer -->
<g id="edge10" class="edge">
<title>RECITAL: membership&#45;&gt;Accepted Capital Offer</title>
<path fill="none" stroke="black" d="M360.33,-963.9C331.81,-1010.67 256.15,-1134.72 222.15,-1190.46"/>
<polygon fill="black" stroke="black" points="219.31,-1188.39 217.09,-1198.75 225.29,-1192.03 219.31,-1188.39"/>
</g>
<!-- Emergency -->
<g id="node15" class="node">
<title>Emergency</title>
<ellipse fill="white" stroke="black" cx="461.39" cy="-1195.26" rx="53.4" ry="18"/>
<text text-anchor="middle" x="461.39" y="-1190.21" font-family="Times,serif" font-size="14.00">Emergency</text>
</g>
<!-- RECITAL: membership&#45;&gt;Emergency -->
<g id="edge11" class="edge">
<title>RECITAL: membership&#45;&gt;Emergency</title>
<path fill="none" stroke="black" d="M378.11,-963.95C393.61,-1006.98 432.36,-1114.61 451.02,-1166.46"/>
<polygon fill="black" stroke="black" points="447.7,-1167.57 454.38,-1175.79 454.29,-1165.2 447.7,-1167.57"/>
</g>
<!-- Capital Top Up Offer -->
<g id="node16" class="node">
<title>Capital Top Up Offer</title>
<ellipse fill="white" stroke="black" cx="103.95" cy="-1114.16" rx="90.76" ry="18"/>
<text text-anchor="middle" x="103.95" y="-1109.11" font-family="Times,serif" font-size="14.00">Capital Top Up Offer</text>
</g>
<!-- RECITAL: membership&#45;&gt;Capital Top Up Offer -->
<g id="edge12" class="edge">
<title>RECITAL: membership&#45;&gt;Capital Top Up Offer</title>
<path fill="none" stroke="black" d="M343.38,-963.31C294.88,-993.87 195.51,-1056.48 141.28,-1090.64"/>
<polygon fill="black" stroke="black" points="139.58,-1087.58 132.98,-1095.87 143.31,-1093.5 139.58,-1087.58"/>
</g>
<!-- Voted In The Current Election -->
<g id="node17" class="node">
<title>Voted In The Current Election</title>
<ellipse fill="white" stroke="black" cx="123" cy="-709.96" rx="123" ry="18"/>
<text text-anchor="middle" x="123" y="-704.91" font-family="Times,serif" font-size="14.00">Voted In The Current Election</text>
</g>
<!-- RECITAL: membership&#45;&gt;Voted In The Current Election -->
<g id="edge13" class="edge">
<title>RECITAL: membership&#45;&gt;Voted In The Current Election</title>
<path fill="none" stroke="black" d="M352.42,-927.49C308.69,-886.03 201.14,-784.04 150.37,-735.91"/>
<polygon fill="black" stroke="black" points="152.92,-733.5 143.25,-729.16 148.1,-738.58 152.92,-733.5"/>
</g>
<!-- Receive Shares -->
<g id="node18" class="node">
<title>Receive Shares</title>
<ellipse fill="white" stroke="black" cx="730.65" cy="-892.47" rx="67.73" ry="18"/>
<text text-anchor="middle" x="730.65" y="-887.42" font-family="Times,serif" font-size="14.00">Receive Shares</text>
</g>
<!-- RECITAL: membership&#45;&gt;Receive Shares -->
<g id="edge14" class="edge">
<title>RECITAL: membership&#45;&gt;Receive Shares</title>
<path fill="none" stroke="black" d="M450.32,-933.93C512.78,-924.69 599.29,-911.9 659.63,-902.97"/>
<polygon fill="black" stroke="black" points="660.08,-906.44 669.46,-901.52 659.05,-899.52 660.08,-906.44"/>
</g>
<!-- Never Voted -->
<g id="node19" class="node">
<title>Never Voted</title>
<ellipse fill="white" stroke="black" cx="70.53" cy="-837.56" rx="56.98" ry="18"/>
<text text-anchor="middle" x="70.53" y="-832.51" font-family="Times,serif" font-size="14.00">Never Voted</text>
</g>
<!-- RECITAL: membership&#45;&gt;Never Voted -->
<g id="edge15" class="edge">
<title>RECITAL: membership&#45;&gt;Never Voted</title>
<path fill="none" stroke="black" d="M325.79,-929.18C270.02,-909.16 176.14,-875.46 119.1,-854.99"/>
<polygon fill="black" stroke="black" points="120.57,-851.8 109.98,-851.71 118.21,-858.39 120.57,-851.8"/>
</g>
<!-- Member Capital -->
<g id="node20" class="node">
<title>Member Capital</title>
<ellipse fill="white" stroke="black" cx="326.36" cy="-697.97" rx="72.34" ry="18"/>
<text text-anchor="middle" x="326.36" y="-692.92" font-family="Times,serif" font-size="14.00">Member Capital</text>
</g>
<!-- RECITAL: membership&#45;&gt;Member Capital -->
<g id="edge16" class="edge">
<title>RECITAL: membership&#45;&gt;Member Capital</title>
<path fill="none" stroke="black" d="M368.19,-927.38C360.44,-884.9 341.12,-778.92 331.7,-727.23"/>
<polygon fill="black" stroke="black" points="335.2,-726.9 329.96,-717.69 328.31,-728.16 335.2,-726.9"/>
</g>
<!-- Last Buy In -->
<g id="node21" class="node">
<title>Last Buy In</title>
<ellipse fill="white" stroke="black" cx="574.22" cy="-764.37" rx="54.93" ry="18"/>
<text text-anchor="middle" x="574.22" y="-759.32" font-family="Times,serif" font-size="14.00">Last Buy In</text>
</g>
<!-- RECITAL: membership&#45;&gt;Last Buy In -->
<g id="edge17" class="edge">
<title>RECITAL: membership&#45;&gt;Last Buy In</title>
<path fill="none" stroke="black" d="M391.68,-927.55C428.16,-894.94 505.13,-826.13 546.51,-789.14"/>
<polygon fill="black" stroke="black" points="548.77,-791.82 553.89,-782.55 544.1,-786.61 548.77,-791.82"/>
</g>
<!-- Shares -->
<g id="node22" class="node">
<title>Shares</title>
<ellipse fill="white" stroke="black" cx="47.66" cy="-980.49" rx="35.49" ry="18"/>
<text text-anchor="middle" x="47.66" y="-975.44" font-family="Times,serif" font-size="14.00">Shares</text>
</g>
<!-- RECITAL: membership&#45;&gt;Shares -->
<g id="edge18" class="edge">
<title>RECITAL: membership&#45;&gt;Shares</title>
<path fill="none" stroke="black" d="M283.87,-955.03C222.65,-961.63 143.35,-970.17 93.99,-975.49"/>
<polygon fill="black" stroke="black" points="93.79,-971.99 84.23,-976.55 94.54,-978.95 93.79,-971.99"/>
</g>
<!-- Start of the Emergency -->
<g id="node23" class="node">
<title>Start of the Emergency</title>
<ellipse fill="white" stroke="black" cx="632.47" cy="-1025.34" rx="97.41" ry="18"/>
<text text-anchor="middle" x="632.47" y="-1020.29" font-family="Times,serif" font-size="14.00">Start of the Emergency</text>
</g>
<!-- RECITAL: membership&#45;&gt;Start of the Emergency -->
<g id="edge19" class="edge">
<title>RECITAL: membership&#45;&gt;Start of the Emergency</title>
<path fill="none" stroke="black" d="M423.37,-961.44C465.67,-974.36 525.53,-992.66 570.37,-1006.36"/>
<polygon fill="black" stroke="black" points="569.11,-1009.64 579.69,-1009.21 571.15,-1002.94 569.11,-1009.64"/>
</g>
<!-- Member -->
<g id="node24" class="node">
<title>Member</title>
<ellipse fill="white" stroke="black" cx="609.44" cy="-1196.4" rx="43.16" ry="18"/>
<text text-anchor="middle" x="609.44" y="-1191.35" font-family="Times,serif" font-size="14.00">Member</text>
</g>
<!-- RECITAL: membership&#45;&gt;Member -->
<g id="edge20" class="edge">
<title>RECITAL: membership&#45;&gt;Member</title>
<path fill="none" stroke="black" d="M388.62,-963.63C430.42,-1007.69 537.81,-1120.89 585.73,-1171.41"/>
<polygon fill="black" stroke="black" points="582.97,-1173.58 592.39,-1178.42 588.04,-1168.76 582.97,-1173.58"/>
</g>
<!-- Last Vote -->
<g id="node25" class="node">
<title>Last Vote</title>
<ellipse fill="white" stroke="black" cx="351.97" cy="-1287.91" rx="45.72" ry="18"/>
<text text-anchor="middle" x="351.97" y="-1282.86" font-family="Times,serif" font-size="14.00">Last Vote</text>
</g>
<!-- RECITAL: membership&#45;&gt;Last Vote -->
<g id="edge21" class="edge">
<title>RECITAL: membership&#45;&gt;Last Vote</title>
<path fill="none" stroke="black" d="M370.45,-963.99C367.25,-1020.2 357.56,-1189.93 353.64,-1258.6"/>
<polygon fill="black" stroke="black" points="350.16,-1258.14 353.09,-1268.32 357.15,-1258.54 350.16,-1258.14"/>
</g>
<!-- Wind Down -->
<g id="node26" class="node">
<title>Wind Down</title>
<ellipse fill="white" stroke="black" cx="704.66" cy="-1512.27" rx="56.47" ry="18"/>
<text text-anchor="middle" x="704.66" y="-1507.22" font-family="Times,serif" font-size="14.00">Wind Down</text>
</g>
<!-- Wind Down&#45;&gt;Pay Out and Terminate -->
<g id="edge23" class="edge">
<title>Wind Down&#45;&gt;Pay Out and Terminate</title>
<path fill="none" stroke="black" d="M716.92,-1494.5C726.44,-1480.7 739.83,-1461.29 750.75,-1445.46"/>
<polygon fill="black" stroke="black" points="753.52,-1447.6 756.32,-1437.38 747.76,-1443.63 753.52,-1447.6"/>
</g>
<!-- Cancel -->
<g id="node27" class="node">
<title>Cancel</title>
<ellipse fill="white" stroke="black" cx="776.47" cy="-1604.6" rx="36.51" ry="18"/>
<text text-anchor="middle" x="776.47" y="-1599.55" font-family="Times,serif" font-size="14.00">Cancel</text>
</g>
<!-- Wind Down&#45;&gt;Cancel -->
<g id="edge24" class="edge">
<title>Wind Down&#45;&gt;Cancel</title>
<path fill="none" stroke="black" d="M718.5,-1530.08C729.17,-1543.79 744.07,-1562.95 756.1,-1578.41"/>
<polygon fill="black" stroke="black" points="753.32,-1580.54 762.22,-1586.28 758.85,-1576.24 753.32,-1580.54"/>
</g>
<!-- RECITAL: manager election -->
<g id="node28" class="node">
<title>RECITAL: manager election</title>
<ellipse fill="white" stroke="black" cx="1478.33" cy="-338.02" rx="118.91" ry="18"/>
<text text-anchor="middle" x="1478.33" y="-332.97" font-family="Times,serif" font-size="14.00">RECITAL: manager election</text>
</g>
<!-- RECITAL: manager election&#45;&gt;Initiate The Election Process -->
<g id="edge26" class="edge">
<title>RECITAL: manager election&#45;&gt;Initiate The Election Process</title>
<path fill="none" stroke="black" d="M1473.99,-319.65C1469.4,-300.18 1462.08,-269.15 1456.69,-246.32"/>
<polygon fill="black" stroke="black" points="1460.13,-245.63 1454.43,-236.7 1453.32,-247.23 1460.13,-245.63"/>
</g>
<!-- Manager Candidate -->
<g id="node29" class="node">
<title>Manager Candidate</title>
<ellipse fill="white" stroke="black" cx="1494.95" cy="-452.41" rx="84.11" ry="18"/>
<text text-anchor="middle" x="1494.95" y="-447.36" font-family="Times,serif" font-size="14.00">Manager Candidate</text>
</g>
<!-- RECITAL: manager election&#45;&gt;Manager Candidate -->
<g id="edge25" class="edge">
<title>RECITAL: manager election&#45;&gt;Manager Candidate</title>
<path fill="none" stroke="black" d="M1481,-356.4C1483.6,-374.33 1487.61,-401.89 1490.66,-422.89"/>
<polygon fill="black" stroke="black" points="1487.17,-423.18 1492.07,-432.58 1494.1,-422.18 1487.17,-423.18"/>
</g>
<!-- RECITAL: trader election -->
<g id="node31" class="node">
<title>RECITAL: trader election</title>
<ellipse fill="white" stroke="black" cx="1384.71" cy="-111.23" rx="108.16" ry="18"/>
<text text-anchor="middle" x="1384.71" y="-106.18" font-family="Times,serif" font-size="14.00">RECITAL: trader election</text>
</g>
<!-- RECITAL: trader election&#45;&gt;Initiate The Election Process -->
<g id="edge29" class="edge">
<title>RECITAL: trader election&#45;&gt;Initiate The Election Process</title>
<path fill="none" stroke="black" d="M1395.75,-129.18C1405.83,-145.58 1420.9,-170.09 1432.57,-189.06"/>
<polygon fill="black" stroke="black" points="1429.47,-190.71 1437.69,-197.39 1435.43,-187.04 1429.47,-190.71"/>
</g>
<!-- Trader Candidate -->
<g id="node32" class="node">
<title>Trader Candidate</title>
<ellipse fill="white" stroke="black" cx="1316.41" cy="-18" rx="75.41" ry="18"/>
<text text-anchor="middle" x="1316.41" y="-12.95" font-family="Times,serif" font-size="14.00">Trader Candidate</text>
</g>
<!-- RECITAL: trader election&#45;&gt;Trader Candidate -->
<g id="edge28" class="edge">
<title>RECITAL: trader election&#45;&gt;Trader Candidate</title>
<path fill="none" stroke="black" d="M1371.54,-93.25C1361.52,-79.58 1347.58,-60.54 1336.22,-45.04"/>
<polygon fill="black" stroke="black" points="1339.16,-43.14 1330.43,-37.14 1333.52,-47.28 1339.16,-43.14"/>
</g>
<!-- Accept Application -->
<g id="node33" class="node">
<title>Accept Application</title>
<ellipse fill="white" stroke="black" cx="521.5" cy="-18" rx="82.57" ry="18"/>
<text text-anchor="middle" x="521.5" y="-12.95" font-family="Times,serif" font-size="14.00">Accept Application</text>
</g>
<!-- Accept Application&#45;&gt;Count -->
<g id="edge31" class="edge">
<title>Accept Application&#45;&gt;Count</title>
<path fill="none" stroke="black" d="M518.86,-36.44C512.2,-83.13 494.63,-206.35 486.53,-263.13"/>
<polygon fill="black" stroke="black" points="483.11,-262.3 485.16,-272.69 490.04,-263.29 483.11,-262.3"/>
</g>
<!-- Process Trader Election Results -->
<g id="node34" class="node">
<title>Process Trader Election Results</title>
<ellipse fill="white" stroke="black" cx="858.86" cy="-427" rx="128.63" ry="18"/>
<text text-anchor="middle" x="858.86" y="-421.95" font-family="Times,serif" font-size="14.00">Process Trader Election Results</text>
</g>
<!-- End the Election Process -->
<g id="node35" class="node">
<title>End the Election Process</title>
<ellipse fill="white" stroke="black" cx="1015.81" cy="-578.61" rx="103.56" ry="18"/>
<text text-anchor="middle" x="1015.81" y="-573.56" font-family="Times,serif" font-size="14.00">End the Election Process</text>
</g>
<!-- Process Trader Election Results&#45;&gt;End the Election Process -->
<g id="edge32" class="edge">
<title>Process Trader Election Results&#45;&gt;End the Election Process</title>
<path fill="none" stroke="black" d="M877.79,-445.29C905.63,-472.19 957.73,-522.51 989.34,-553.05"/>
<polygon fill="black" stroke="black" points="986.58,-555.25 996.21,-559.68 991.45,-550.22 986.58,-555.25"/>
</g>
<!-- Most Recent Proposal Succeeded -->
<g id="node40" class="node">
<title>Most Recent Proposal Succeeded</title>
<ellipse fill="white" stroke="black" cx="1050.47" cy="-794.09" rx="135.29" ry="18"/>
<text text-anchor="middle" x="1050.47" y="-789.04" font-family="Times,serif" font-size="14.00">Most Recent Proposal Succeeded</text>
</g>
<!-- End the Election Process&#45;&gt;Most Recent Proposal Succeeded -->
<g id="edge37" class="edge">
<title>End the Election Process&#45;&gt;Most Recent Proposal Succeeded</title>
<path fill="none" stroke="black" d="M1018.76,-596.99C1024.77,-634.36 1038.47,-719.5 1045.74,-764.68"/>
<polygon fill="black" stroke="black" points="1042.24,-764.96 1047.28,-774.27 1049.15,-763.84 1042.24,-764.96"/>
</g>
<!-- Proposal Succeeds -->
<g id="node41" class="node">
<title>Proposal Succeeds</title>
<ellipse fill="white" stroke="black" cx="1231.32" cy="-611.84" rx="80.01" ry="18"/>
<text text-anchor="middle" x="1231.32" y="-606.79" font-family="Times,serif" font-size="14.00">Proposal Succeeds</text>
</g>
<!-- End the Election Process&#45;&gt;Proposal Succeeds -->
<g id="edge38" class="edge">
<title>End the Election Process&#45;&gt;Proposal Succeeds</title>
<path fill="none" stroke="black" d="M1094.22,-590.7C1113.54,-593.68 1134.22,-596.87 1153.5,-599.84"/>
<polygon fill="black" stroke="black" points="1152.77,-603.27 1163.18,-601.34 1153.83,-596.35 1152.77,-603.27"/>
</g>
<!-- Dissolution -->
<g id="node36" class="node">
<title>Dissolution</title>
<ellipse fill="white" stroke="black" cx="586.78" cy="-1525.81" rx="53.4" ry="18"/>
<text text-anchor="middle" x="586.78" y="-1520.76" font-family="Times,serif" font-size="14.00">Dissolution</text>
</g>
<!-- Dissolution&#45;&gt;Wind Down -->
<g id="edge35" class="edge">
<title>Dissolution&#45;&gt;Wind Down</title>
<path fill="none" stroke="black" d="M637.8,-1519.95C638.5,-1519.87 639.2,-1519.79 639.9,-1519.71"/>
<polygon fill="black" stroke="black" points="640.28,-1523.19 649.81,-1518.57 639.48,-1516.23 640.28,-1523.19"/>
</g>
<!-- Depleted -->
<g id="node37" class="node">
<title>Depleted</title>
<ellipse fill="white" stroke="black" cx="527.68" cy="-1624.76" rx="44.19" ry="18"/>
<text text-anchor="middle" x="527.68" y="-1619.71" font-family="Times,serif" font-size="14.00">Depleted</text>
</g>
<!-- Dissolution&#45;&gt;Depleted -->
<g id="edge33" class="edge">
<title>Dissolution&#45;&gt;Depleted</title>
<path fill="none" stroke="black" d="M576.21,-1543.5C567.27,-1558.46 554.32,-1580.15 544.04,-1597.36"/>
<polygon fill="black" stroke="black" points="541.25,-1595.21 539.13,-1605.59 547.26,-1598.8 541.25,-1595.21"/>
</g>
<!-- Uncontrolled -->
<g id="node38" class="node">
<title>Uncontrolled</title>
<ellipse fill="white" stroke="black" cx="497.54" cy="-1452.99" rx="59.54" ry="18"/>
<text text-anchor="middle" x="497.54" y="-1447.94" font-family="Times,serif" font-size="14.00">Uncontrolled</text>
</g>
<!-- Dissolution&#45;&gt;Uncontrolled -->
<g id="edge34" class="edge">
<title>Dissolution&#45;&gt;Uncontrolled</title>
<path fill="none" stroke="black" d="M566.08,-1508.92C554.65,-1499.59 540.23,-1487.83 527.58,-1477.5"/>
<polygon fill="black" stroke="black" points="529.88,-1474.86 519.92,-1471.25 525.45,-1480.28 529.88,-1474.86"/>
</g>
<!-- Process Manager Election Results -->
<g id="node39" class="node">
<title>Process Manager Election Results</title>
<ellipse fill="white" stroke="black" cx="1112.12" cy="-383" rx="137.85" ry="18"/>
<text text-anchor="middle" x="1112.12" y="-377.95" font-family="Times,serif" font-size="14.00">Process Manager Election Results</text>
</g>
<!-- Process Manager Election Results&#45;&gt;End the Election Process -->
<g id="edge36" class="edge">
<title>Process Manager Election Results&#45;&gt;End the Election Process</title>
<path fill="none" stroke="black" d="M1103.06,-401.4C1086.2,-435.64 1049.91,-509.34 1029.85,-550.08"/>
<polygon fill="black" stroke="black" points="1026.72,-548.53 1025.44,-559.05 1033,-551.62 1026.72,-548.53"/>
</g>
<!-- Trader Ends Trading -->
<g id="node42" class="node">
<title>Trader Ends Trading</title>
<ellipse fill="white" stroke="black" cx="1256.03" cy="-1491.8" rx="87.69" ry="18"/>
<text text-anchor="middle" x="1256.03" y="-1486.75" font-family="Times,serif" font-size="14.00">Trader Ends Trading</text>
</g>
<!-- Trader Ends Trading&#45;&gt;End of Trading -->
<g id="edge39" class="edge">
<title>Trader Ends Trading&#45;&gt;End of Trading</title>
<path fill="none" stroke="black" d="M1241.13,-1473.62C1223.81,-1452.47 1195.07,-1417.39 1175.27,-1393.22"/>
<polygon fill="black" stroke="black" points="1178.16,-1391.23 1169.12,-1385.71 1172.75,-1395.67 1178.16,-1391.23"/>
</g>
<!-- Trader Ends Trading&#45;&gt;Payment -->
<g id="edge40" class="edge">
<title>Trader Ends Trading&#45;&gt;Payment</title>
<path fill="none" stroke="black" d="M1187.16,-1503.23C1180.97,-1504.25 1174.78,-1505.28 1168.77,-1506.28"/>
<polygon fill="black" stroke="black" points="1168.28,-1502.81 1158.99,-1507.9 1169.43,-1509.72 1168.28,-1502.81"/>
</g>
<!-- Process Upgrade Vote -->
<g id="node43" class="node">
<title>Process Upgrade Vote</title>
<ellipse fill="white" stroke="black" cx="822.3" cy="-679.76" rx="92.3" ry="18"/>
<text text-anchor="middle" x="822.3" y="-674.71" font-family="Times,serif" font-size="14.00">Process Upgrade Vote</text>
</g>
<!-- Process Upgrade Vote&#45;&gt;End the Election Process -->
<g id="edge41" class="edge">
<title>Process Upgrade Vote&#45;&gt;End the Election Process</title>
<path fill="none" stroke="black" d="M855.12,-662.6C887.41,-645.72 936.89,-619.86 972.41,-601.29"/>
<polygon fill="black" stroke="black" points="973.91,-604.46 981.15,-596.73 970.67,-598.26 973.91,-604.46"/>
</g>
<!-- Accept Top Up -->
<g id="node44" class="node">
<title>Accept Top Up</title>
<ellipse fill="white" stroke="black" cx="1034.37" cy="-924.95" rx="67.73" ry="18"/>
<text text-anchor="middle" x="1034.37" y="-919.9" font-family="Times,serif" font-size="14.00">Accept Top Up</text>
</g>
<!-- Accept Top Up&#45;&gt;Receive Shares -->
<g id="edge42" class="edge">
<title>Accept Top Up&#45;&gt;Receive Shares</title>
<path fill="none" stroke="black" d="M971.07,-918.18C922.74,-913.01 856.02,-905.88 805.13,-900.43"/>
<polygon fill="black" stroke="black" points="805.69,-896.97 795.37,-899.39 804.94,-903.93 805.69,-896.97"/>
</g>
<!-- RECITAL: application -->
<g id="node50" class="node">
<title>RECITAL: application</title>
<ellipse fill="white" stroke="black" cx="150.86" cy="-415.16" rx="95.88" ry="18"/>
<text text-anchor="middle" x="150.86" y="-410.11" font-family="Times,serif" font-size="14.00">RECITAL: application</text>
</g>
<!-- Initial Capital Offer -->
<g id="node51" class="node">
<title>Initial Capital Offer</title>
<ellipse fill="white" stroke="black" cx="339.37" cy="-444.42" rx="84.62" ry="18"/>
<text text-anchor="middle" x="339.37" y="-439.37" font-family="Times,serif" font-size="14.00">Initial Capital Offer</text>
</g>
<!-- RECITAL: application&#45;&gt;Initial Capital Offer -->
<g id="edge48" class="edge">
<title>RECITAL: application&#45;&gt;Initial Capital Offer</title>
<path fill="none" stroke="black" d="M225.64,-426.76C236.55,-428.46 247.82,-430.21 258.84,-431.92"/>
<polygon fill="black" stroke="black" points="258.29,-435.37 268.71,-433.45 259.36,-428.46 258.29,-435.37"/>
</g>
<!-- Applicant -->
<g id="node52" class="node">
<title>Applicant</title>
<ellipse fill="white" stroke="black" cx="82.84" cy="-237" rx="47.26" ry="18"/>
<text text-anchor="middle" x="82.84" y="-231.95" font-family="Times,serif" font-size="14.00">Applicant</text>
</g>
<!-- RECITAL: application&#45;&gt;Applicant -->
<g id="edge49" class="edge">
<title>RECITAL: application&#45;&gt;Applicant</title>
<path fill="none" stroke="black" d="M143.84,-396.76C131.99,-365.74 107.97,-302.81 93.86,-265.86"/>
<polygon fill="black" stroke="black" points="97.21,-264.8 90.37,-256.71 90.67,-267.3 97.21,-264.8"/>
</g>
<!-- Limit -->
<g id="node53" class="node">
<title>Limit</title>
<ellipse fill="white" stroke="black" cx="31.9" cy="-564.19" rx="31.9" ry="18"/>
<text text-anchor="middle" x="31.9" y="-559.14" font-family="Times,serif" font-size="14.00">Limit</text>
</g>
<!-- RECITAL: application&#45;&gt;Limit -->
<g id="edge50" class="edge">
<title>RECITAL: application&#45;&gt;Limit</title>
<path fill="none" stroke="black" d="M136.27,-433.43C115.13,-459.92 75.9,-509.07 52.03,-538.98"/>
<polygon fill="black" stroke="black" points="49.59,-536.42 46.09,-546.42 55.06,-540.79 49.59,-536.42"/>
</g>
</g>
</svg>
