<?xml version="1.0" encoding="UTF-8" standalone="no"?>
<!DOCTYPE svg PUBLIC "-//W3C//DTD SVG 1.1//EN"
 "http://www.w3.org/Graphics/SVG/1.1/DTD/svg11.dtd">
<!-- Generated by graphviz version 9.0.0 (20230911.1827)
 -->
<!-- Title: View Pages: 1 -->
<svg width="196pt" height="172pt"
 viewBox="0.00 0.00 195.77 171.94" xmlns="http://www.w3.org/2000/svg" xmlns:xlink="http://www.w3.org/1999/xlink">
<g id="graph0" class="graph" transform="scale(1 1) rotate(0) translate(4 167.94)">
<title>View</title>
<polygon fill="white" stroke="none" points="-4,4 -4,-167.94 191.77,-167.94 191.77,4 -4,4"/>
<!-- Top -->
<g id="node1" class="node">
<title>Top</title>
<path fill="red" stroke="black" stroke-dasharray="1,5" d="M42,-80C42,-80 12,-80 12,-80 6,-80 0,-74 0,-68 0,-68 0,-56 0,-56 0,-50 6,-44 12,-44 12,-44 42,-44 42,-44 48,-44 54,-50 54,-56 54,-56 54,-68 54,-68 54,-74 48,-80 42,-80"/>
<text text-anchor="middle" x="27" y="-56.95" font-family="Times,serif" font-size="14.00">Top</text>
</g>
<!-- Right -->
<g id="node2" class="node">
<title>Right</title>
<path fill="yellow" stroke="black" stroke-dasharray="5,2" d="M175.77,-79.42C175.77,-79.42 145.77,-79.42 145.77,-79.42 139.77,-79.42 133.77,-73.42 133.77,-67.42 133.77,-67.42 133.77,-55.42 133.77,-55.42 133.77,-49.42 139.77,-43.42 145.77,-43.42 145.77,-43.42 175.77,-43.42 175.77,-43.42 181.77,-43.42 187.77,-49.42 187.77,-55.42 187.77,-55.42 187.77,-67.42 187.77,-67.42 187.77,-73.42 181.77,-79.42 175.77,-79.42"/>
<text text-anchor="middle" x="160.77" y="-56.37" font-family="Times,serif" font-size="14.00">Right</text>
</g>
<!-- Top&#45;&gt;Right -->
<g id="edge1" class="edge">
<title>Top&#45;&gt;Right</title>
<path fill="none" stroke="black" d="M54.39,-61.88C73.87,-61.8 100.31,-61.68 121.95,-61.59"/>
<polygon fill="black" stroke="black" points="121.91,-65.09 131.9,-61.54 121.88,-58.09 121.91,-65.09"/>
</g>
<!-- Bottom -->
<g id="node3" class="node">
<title>Bottom</title>
<ellipse fill="green" stroke="black" cx="85.96" cy="-18" rx="39.07" ry="18"/>
<text text-anchor="middle" x="85.96" y="-12.95" font-family="Times,serif" font-size="14.00">Bottom</text>
</g>
<!-- Top&#45;&gt;Bottom -->
<g id="edge2" class="edge">
<title>Top&#45;&gt;Bottom</title>
<path fill="none" stroke="black" d="M51.66,-43.6C53.23,-42.43 54.81,-41.25 56.39,-40.07"/>
<polygon fill="black" stroke="black" points="58.19,-43.1 64.11,-34.31 54,-37.49 58.19,-43.1"/>
</g>
<!-- Start -->
<g id="node4" class="node">
<title>Start</title>
<polygon fill="lightgrey" stroke="black" points="79.56,-151.51 44.55,-163.94 9.54,-151.51 22.92,-131.38 66.18,-131.38 79.56,-151.51"/>
<text text-anchor="middle" x="44.55" y="-140.89" font-family="Times,serif" font-size="14.00">Start</text>
</g>
<!-- Top&#45;&gt;Start -->
<g id="edge3" class="edge">
<title>Top&#45;&gt;Start</title>
<path fill="none" stroke="black" d="M30.81,-80.22C33.25,-91.88 36.45,-107.2 39.15,-120.11"/>
<polygon fill="black" stroke="black" points="35.67,-120.57 41.14,-129.64 42.52,-119.14 35.67,-120.57"/>
</g>
<!-- Bottom&#45;&gt;Right -->
<g id="edge4" class="edge">
<title>Bottom&#45;&gt;Right</title>
<path fill="none" stroke="black" d="M110.46,-32.22C114.69,-34.68 119.18,-37.28 123.67,-39.88"/>
<polygon fill="black" stroke="black" points="121.66,-42.76 132.06,-44.76 125.17,-36.71 121.66,-42.76"/>
</g>
<!-- Start&#45;&gt;Bottom -->
<g id="edge5" class="edge">
<title>Start&#45;&gt;Bottom</title>
<path fill="none" stroke="black" d="M49.38,-131.02C56.04,-110.46 68.16,-73.02 76.61,-46.89"/>
<polygon fill="black" stroke="black" points="79.88,-48.15 79.63,-37.56 73.22,-45.99 79.88,-48.15"/>
</g>
</g>
</svg>
