<?xml version="1.0" encoding="UTF-8" standalone="no"?>
<!DOCTYPE svg PUBLIC "-//W3C//DTD SVG 1.1//EN"
 "http://www.w3.org/Graphics/SVG/1.1/DTD/svg11.dtd">
<!-- Generated by graphviz version 2.47.1 (20210417.1919)
 -->
<!-- Title: graphName Pages: 1 -->
<svg width="2683pt" height="332pt"
 viewBox="0.00 0.00 2682.99 332.00" xmlns="http://www.w3.org/2000/svg" xmlns:xlink="http://www.w3.org/1999/xlink">
<g id="graph0" class="graph" transform="scale(1 1) rotate(0) translate(4 328)">
<title>graphName</title>
<polygon fill="white" stroke="transparent" points="-4,4 -4,-328 2678.99,-328 2678.99,4 -4,4"/>
<!-- Dissolution -->
<g id="node1" class="node">
<title>Dissolution</title>
<ellipse fill="none" stroke="black" cx="218.59" cy="-306" rx="51.19" ry="18"/>
<text text-anchor="middle" x="218.59" y="-302.3" font-family="Times,serif" font-size="14.00">Dissolution</text>
</g>
<!-- Wind Down -->
<g id="node2" class="node">
<title>Wind Down</title>
<ellipse fill="none" stroke="black" cx="218.59" cy="-234" rx="53.89" ry="18"/>
<text text-anchor="middle" x="218.59" y="-230.3" font-family="Times,serif" font-size="14.00">Wind Down</text>
</g>
<!-- Dissolution&#45;&gt;Wind Down -->
<g id="edge1" class="edge">
<title>Dissolution&#45;&gt;Wind Down</title>
<path fill="none" stroke="black" d="M218.59,-287.7C218.59,-279.98 218.59,-270.71 218.59,-262.11"/>
<polygon fill="black" stroke="black" points="222.09,-262.1 218.59,-252.1 215.09,-262.1 222.09,-262.1"/>
</g>
<!-- Pay Out and Terminate -->
<g id="node6" class="node">
<title>Pay Out and Terminate</title>
<ellipse fill="none" stroke="black" cx="93.59" cy="-162" rx="93.68" ry="18"/>
<text text-anchor="middle" x="93.59" y="-158.3" font-family="Times,serif" font-size="14.00">Pay Out and Terminate</text>
</g>
<!-- Wind Down&#45;&gt;Pay Out and Terminate -->
<g id="edge22" class="edge">
<title>Wind Down&#45;&gt;Pay Out and Terminate</title>
<path fill="none" stroke="black" d="M192.08,-218.15C174.51,-208.32 151.19,-195.25 131.64,-184.31"/>
<polygon fill="black" stroke="black" points="133.12,-181.12 122.68,-179.29 129.7,-187.23 133.12,-181.12"/>
</g>
<!-- Cancel -->
<g id="node29" class="node">
<title>Cancel</title>
<ellipse fill="none" stroke="black" cx="240.59" cy="-162" rx="35.19" ry="18"/>
<text text-anchor="middle" x="240.59" y="-158.3" font-family="Times,serif" font-size="14.00">Cancel</text>
</g>
<!-- Wind Down&#45;&gt;Cancel -->
<g id="edge23" class="edge">
<title>Wind Down&#45;&gt;Cancel</title>
<path fill="none" stroke="black" d="M223.92,-216.05C226.37,-208.26 229.33,-198.82 232.08,-190.08"/>
<polygon fill="black" stroke="black" points="235.5,-190.86 235.16,-180.28 228.83,-188.77 235.5,-190.86"/>
</g>
<!-- Vote -->
<g id="node3" class="node">
<title>Vote</title>
<ellipse fill="none" stroke="black" cx="314.59" cy="-306" rx="27" ry="18"/>
<text text-anchor="middle" x="314.59" y="-302.3" font-family="Times,serif" font-size="14.00">Vote</text>
</g>
<!-- Count -->
<g id="node4" class="node">
<title>Count</title>
<ellipse fill="none" stroke="black" cx="380.59" cy="-234" rx="32.49" ry="18"/>
<text text-anchor="middle" x="380.59" y="-230.3" font-family="Times,serif" font-size="14.00">Count</text>
</g>
<!-- Vote&#45;&gt;Count -->
<g id="edge2" class="edge">
<title>Vote&#45;&gt;Count</title>
<path fill="none" stroke="black" d="M328.59,-290.15C337.48,-280.72 349.16,-268.33 359.2,-257.69"/>
<polygon fill="black" stroke="black" points="361.85,-259.98 366.16,-250.31 356.75,-255.18 361.85,-259.98"/>
</g>
<!-- Leave -->
<g id="node5" class="node">
<title>Leave</title>
<ellipse fill="none" stroke="black" cx="93.59" cy="-234" rx="32.49" ry="18"/>
<text text-anchor="middle" x="93.59" y="-230.3" font-family="Times,serif" font-size="14.00">Leave</text>
</g>
<!-- Leave&#45;&gt;Pay Out and Terminate -->
<g id="edge3" class="edge">
<title>Leave&#45;&gt;Pay Out and Terminate</title>
<path fill="none" stroke="black" d="M93.59,-215.7C93.59,-207.98 93.59,-198.71 93.59,-190.11"/>
<polygon fill="black" stroke="black" points="97.09,-190.1 93.59,-180.1 90.09,-190.1 97.09,-190.1"/>
</g>
<!-- RECITAL: trader election -->
<g id="node7" class="node">
<title>RECITAL: trader election</title>
<ellipse fill="none" stroke="black" cx="639.59" cy="-306" rx="103.18" ry="18"/>
<text text-anchor="middle" x="639.59" y="-302.3" font-family="Times,serif" font-size="14.00">RECITAL: trader election</text>
</g>
<!-- Initiate The Election Process -->
<g id="node8" class="node">
<title>Initiate The Election Process</title>
<ellipse fill="none" stroke="black" cx="875.59" cy="-234" rx="112.38" ry="18"/>
<text text-anchor="middle" x="875.59" y="-230.3" font-family="Times,serif" font-size="14.00">Initiate The Election Process</text>
</g>
<!-- RECITAL: trader election&#45;&gt;Initiate The Election Process -->
<g id="edge4" class="edge">
<title>RECITAL: trader election&#45;&gt;Initiate The Election Process</title>
<path fill="none" stroke="black" d="M689.64,-290.15C726.31,-279.28 776.27,-264.46 815.16,-252.92"/>
<polygon fill="black" stroke="black" points="816.21,-256.26 824.8,-250.07 814.22,-249.55 816.21,-256.26"/>
</g>
<!-- Enable Voting -->
<g id="node13" class="node">
<title>Enable Voting</title>
<ellipse fill="none" stroke="black" cx="875.59" cy="-162" rx="61.19" ry="18"/>
<text text-anchor="middle" x="875.59" y="-158.3" font-family="Times,serif" font-size="14.00">Enable Voting</text>
</g>
<!-- Initiate The Election Process&#45;&gt;Enable Voting -->
<g id="edge8" class="edge">
<title>Initiate The Election Process&#45;&gt;Enable Voting</title>
<path fill="none" stroke="black" d="M875.59,-215.7C875.59,-207.98 875.59,-198.71 875.59,-190.11"/>
<polygon fill="black" stroke="black" points="879.09,-190.1 875.59,-180.1 872.09,-190.1 879.09,-190.1"/>
</g>
<!-- Process Trader Election Results -->
<g id="node9" class="node">
<title>Process Trader Election Results</title>
<ellipse fill="none" stroke="black" cx="1376.59" cy="-306" rx="123.48" ry="18"/>
<text text-anchor="middle" x="1376.59" y="-302.3" font-family="Times,serif" font-size="14.00">Process Trader Election Results</text>
</g>
<!-- End the Election Process -->
<g id="node10" class="node">
<title>End the Election Process</title>
<ellipse fill="none" stroke="black" cx="1607.59" cy="-234" rx="98.58" ry="18"/>
<text text-anchor="middle" x="1607.59" y="-230.3" font-family="Times,serif" font-size="14.00">End the Election Process</text>
</g>
<!-- Process Trader Election Results&#45;&gt;End the Election Process -->
<g id="edge5" class="edge">
<title>Process Trader Election Results&#45;&gt;End the Election Process</title>
<path fill="none" stroke="black" d="M1427.57,-289.55C1463.55,-278.65 1511.83,-264.02 1549.33,-252.65"/>
<polygon fill="black" stroke="black" points="1550.56,-255.94 1559.11,-249.69 1548.53,-249.24 1550.56,-255.94"/>
</g>
<!-- RECITAL: upgrade initiative -->
<g id="node11" class="node">
<title>RECITAL: upgrade initiative</title>
<ellipse fill="none" stroke="black" cx="875.59" cy="-306" rx="114.28" ry="18"/>
<text text-anchor="middle" x="875.59" y="-302.3" font-family="Times,serif" font-size="14.00">RECITAL: upgrade initiative</text>
</g>
<!-- RECITAL: upgrade initiative&#45;&gt;Initiate The Election Process -->
<g id="edge6" class="edge">
<title>RECITAL: upgrade initiative&#45;&gt;Initiate The Election Process</title>
<path fill="none" stroke="black" d="M875.59,-287.7C875.59,-279.98 875.59,-270.71 875.59,-262.11"/>
<polygon fill="black" stroke="black" points="879.09,-262.1 875.59,-252.1 872.09,-262.1 879.09,-262.1"/>
</g>
<!-- Process Upgrade Vote -->
<g id="node12" class="node">
<title>Process Upgrade Vote</title>
<ellipse fill="none" stroke="black" cx="1607.59" cy="-306" rx="89.08" ry="18"/>
<text text-anchor="middle" x="1607.59" y="-302.3" font-family="Times,serif" font-size="14.00">Process Upgrade Vote</text>
</g>
<!-- Process Upgrade Vote&#45;&gt;End the Election Process -->
<g id="edge7" class="edge">
<title>Process Upgrade Vote&#45;&gt;End the Election Process</title>
<path fill="none" stroke="black" d="M1607.59,-287.7C1607.59,-279.98 1607.59,-270.71 1607.59,-262.11"/>
<polygon fill="black" stroke="black" points="1611.09,-262.1 1607.59,-252.1 1604.09,-262.1 1611.09,-262.1"/>
</g>
<!-- Accept Top Up -->
<g id="node14" class="node">
<title>Accept Top Up</title>
<ellipse fill="none" stroke="black" cx="2062.59" cy="-306" rx="65.79" ry="18"/>
<text text-anchor="middle" x="2062.59" y="-302.3" font-family="Times,serif" font-size="14.00">Accept Top Up</text>
</g>
<!-- Receive Shares -->
<g id="node15" class="node">
<title>Receive Shares</title>
<ellipse fill="none" stroke="black" cx="2062.59" cy="-234" rx="64.99" ry="18"/>
<text text-anchor="middle" x="2062.59" y="-230.3" font-family="Times,serif" font-size="14.00">Receive Shares</text>
</g>
<!-- Accept Top Up&#45;&gt;Receive Shares -->
<g id="edge9" class="edge">
<title>Accept Top Up&#45;&gt;Receive Shares</title>
<path fill="none" stroke="black" d="M2062.59,-287.7C2062.59,-279.98 2062.59,-270.71 2062.59,-262.11"/>
<polygon fill="black" stroke="black" points="2066.09,-262.1 2062.59,-252.1 2059.09,-262.1 2066.09,-262.1"/>
</g>
<!-- Accept Application -->
<g id="node16" class="node">
<title>Accept Application</title>
<ellipse fill="none" stroke="black" cx="438.59" cy="-306" rx="79.09" ry="18"/>
<text text-anchor="middle" x="438.59" y="-302.3" font-family="Times,serif" font-size="14.00">Accept Application</text>
</g>
<!-- Accept Application&#45;&gt;Count -->
<g id="edge10" class="edge">
<title>Accept Application&#45;&gt;Count</title>
<path fill="none" stroke="black" d="M424.55,-288.05C417.22,-279.2 408.13,-268.23 400.12,-258.57"/>
<polygon fill="black" stroke="black" points="402.78,-256.3 393.71,-250.83 397.39,-260.76 402.78,-256.3"/>
</g>
<!-- Payment -->
<g id="node17" class="node">
<title>Payment</title>
<ellipse fill="none" stroke="black" cx="2255.59" cy="-234" rx="42.49" ry="18"/>
<text text-anchor="middle" x="2255.59" y="-230.3" font-family="Times,serif" font-size="14.00">Payment</text>
</g>
<!-- End of Trading -->
<g id="node18" class="node">
<title>End of Trading</title>
<ellipse fill="none" stroke="black" cx="2290.59" cy="-162" rx="64.99" ry="18"/>
<text text-anchor="middle" x="2290.59" y="-158.3" font-family="Times,serif" font-size="14.00">End of Trading</text>
</g>
<!-- Payment&#45;&gt;End of Trading -->
<g id="edge11" class="edge">
<title>Payment&#45;&gt;End of Trading</title>
<path fill="none" stroke="black" d="M2258.33,-215.7C2261.61,-207.44 2266.43,-197.39 2271.43,-188.3"/>
<polygon fill="black" stroke="black" points="2274.47,-190.03 2276.44,-179.62 2268.41,-186.53 2274.47,-190.03"/>
</g>
<!-- End of Trading&#45;&gt;Payment -->
<g id="edge27" class="edge">
<title>End of Trading&#45;&gt;Payment</title>
<path fill="none" stroke="black" d="M2287.93,-180.12C2284.62,-188.5 2279.69,-198.74 2274.6,-207.98"/>
<polygon fill="black" stroke="black" points="2271.5,-206.36 2269.51,-216.76 2277.55,-209.87 2271.5,-206.36"/>
</g>
<!-- Distribute Gains -->
<g id="node21" class="node">
<title>Distribute Gains</title>
<ellipse fill="none" stroke="black" cx="2337.59" cy="-90" rx="68.79" ry="18"/>
<text text-anchor="middle" x="2337.59" y="-86.3" font-family="Times,serif" font-size="14.00">Distribute Gains</text>
</g>
<!-- End of Trading&#45;&gt;Distribute Gains -->
<g id="edge25" class="edge">
<title>End of Trading&#45;&gt;Distribute Gains</title>
<path fill="none" stroke="black" d="M2301.97,-144.05C2307.57,-135.71 2314.43,-125.49 2320.64,-116.25"/>
<polygon fill="black" stroke="black" points="2323.65,-118.04 2326.32,-107.79 2317.84,-114.14 2323.65,-118.04"/>
</g>
<!-- Log Results -->
<g id="node27" class="node">
<title>Log Results</title>
<ellipse fill="none" stroke="black" cx="2197.59" cy="-90" rx="53.09" ry="18"/>
<text text-anchor="middle" x="2197.59" y="-86.3" font-family="Times,serif" font-size="14.00">Log Results</text>
</g>
<!-- End of Trading&#45;&gt;Log Results -->
<g id="edge26" class="edge">
<title>End of Trading&#45;&gt;Log Results</title>
<path fill="none" stroke="black" d="M2269.02,-144.76C2256.4,-135.27 2240.3,-123.15 2226.59,-112.82"/>
<polygon fill="black" stroke="black" points="2228.5,-109.88 2218.4,-106.67 2224.29,-115.48 2228.5,-109.88"/>
</g>
<!-- RECITAL: manager election -->
<g id="node19" class="node">
<title>RECITAL: manager election</title>
<ellipse fill="none" stroke="black" cx="1121.59" cy="-306" rx="113.98" ry="18"/>
<text text-anchor="middle" x="1121.59" y="-302.3" font-family="Times,serif" font-size="14.00">RECITAL: manager election</text>
</g>
<!-- RECITAL: manager election&#45;&gt;Initiate The Election Process -->
<g id="edge12" class="edge">
<title>RECITAL: manager election&#45;&gt;Initiate The Election Process</title>
<path fill="none" stroke="black" d="M1068.82,-289.98C1030.47,-279.07 978.44,-264.26 938.02,-252.76"/>
<polygon fill="black" stroke="black" points="938.85,-249.36 928.28,-249.99 936.94,-256.1 938.85,-249.36"/>
</g>
<!-- Top Up -->
<g id="node20" class="node">
<title>Top Up</title>
<ellipse fill="none" stroke="black" cx="2184.59" cy="-306" rx="38.19" ry="18"/>
<text text-anchor="middle" x="2184.59" y="-302.3" font-family="Times,serif" font-size="14.00">Top Up</text>
</g>
<!-- Top Up&#45;&gt;Payment -->
<g id="edge13" class="edge">
<title>Top Up&#45;&gt;Payment</title>
<path fill="none" stroke="black" d="M2200.35,-289.46C2209.69,-280.26 2221.69,-268.42 2232.13,-258.13"/>
<polygon fill="black" stroke="black" points="2234.72,-260.49 2239.39,-250.98 2229.81,-255.51 2234.72,-260.49"/>
</g>
<!-- Draft Fee -->
<g id="node22" class="node">
<title>Draft Fee</title>
<ellipse fill="none" stroke="black" cx="2056.59" cy="-18" rx="44.39" ry="18"/>
<text text-anchor="middle" x="2056.59" y="-14.3" font-family="Times,serif" font-size="14.00">Draft Fee</text>
</g>
<!-- Distribute Gains&#45;&gt;Draft Fee -->
<g id="edge14" class="edge">
<title>Distribute Gains&#45;&gt;Draft Fee</title>
<path fill="none" stroke="black" d="M2286.95,-77.74C2230.41,-65.07 2142.5,-45.09 2109.59,-36 2106.23,-35.07 2102.76,-34.07 2099.29,-33.03"/>
<polygon fill="black" stroke="black" points="2100.13,-29.63 2089.54,-30.03 2098.07,-36.32 2100.13,-29.63"/>
</g>
<!-- Support Share -->
<g id="node23" class="node">
<title>Support Share</title>
<ellipse fill="none" stroke="black" cx="2179.59" cy="-18" rx="61.19" ry="18"/>
<text text-anchor="middle" x="2179.59" y="-14.3" font-family="Times,serif" font-size="14.00">Support Share</text>
</g>
<!-- Distribute Gains&#45;&gt;Support Share -->
<g id="edge15" class="edge">
<title>Distribute Gains&#45;&gt;Support Share</title>
<path fill="none" stroke="black" d="M2304.08,-74.15C2279.88,-63.43 2247.04,-48.88 2221.16,-37.42"/>
<polygon fill="black" stroke="black" points="2222.53,-34.2 2211.97,-33.35 2219.7,-40.6 2222.53,-34.2"/>
</g>
<!-- Maintenance Share -->
<g id="node24" class="node">
<title>Maintenance Share</title>
<ellipse fill="none" stroke="black" cx="2337.59" cy="-18" rx="79.09" ry="18"/>
<text text-anchor="middle" x="2337.59" y="-14.3" font-family="Times,serif" font-size="14.00">Maintenance Share</text>
</g>
<!-- Distribute Gains&#45;&gt;Maintenance Share -->
<g id="edge16" class="edge">
<title>Distribute Gains&#45;&gt;Maintenance Share</title>
<path fill="none" stroke="black" d="M2337.59,-71.7C2337.59,-63.98 2337.59,-54.71 2337.59,-46.11"/>
<polygon fill="black" stroke="black" points="2341.09,-46.1 2337.59,-36.1 2334.09,-46.1 2341.09,-46.1"/>
</g>
<!-- Reserve Share -->
<g id="node25" class="node">
<title>Reserve Share</title>
<ellipse fill="none" stroke="black" cx="2496.59" cy="-18" rx="61.99" ry="18"/>
<text text-anchor="middle" x="2496.59" y="-14.3" font-family="Times,serif" font-size="14.00">Reserve Share</text>
</g>
<!-- Distribute Gains&#45;&gt;Reserve Share -->
<g id="edge17" class="edge">
<title>Distribute Gains&#45;&gt;Reserve Share</title>
<path fill="none" stroke="black" d="M2371.31,-74.15C2395.67,-63.43 2428.72,-48.88 2454.76,-37.42"/>
<polygon fill="black" stroke="black" points="2456.27,-40.58 2464.01,-33.35 2453.45,-34.17 2456.27,-40.58"/>
</g>
<!-- Trader Fee -->
<g id="node26" class="node">
<title>Trader Fee</title>
<ellipse fill="none" stroke="black" cx="2625.59" cy="-18" rx="49.29" ry="18"/>
<text text-anchor="middle" x="2625.59" y="-14.3" font-family="Times,serif" font-size="14.00">Trader Fee</text>
</g>
<!-- Distribute Gains&#45;&gt;Trader Fee -->
<g id="edge18" class="edge">
<title>Distribute Gains&#45;&gt;Trader Fee</title>
<path fill="none" stroke="black" d="M2389.41,-77.97C2436.17,-67.8 2506.74,-51.91 2567.59,-36 2571.37,-35.01 2575.27,-33.95 2579.18,-32.86"/>
<polygon fill="black" stroke="black" points="2580.2,-36.21 2588.86,-30.12 2578.29,-29.48 2580.2,-36.21"/>
</g>
<!-- Log Results&#45;&gt;Payment -->
<g id="edge19" class="edge">
<title>Log Results&#45;&gt;Payment</title>
<path fill="none" stroke="black" d="M2199.07,-108.06C2201.16,-126.49 2205.97,-156.37 2216.59,-180 2221.21,-190.27 2228.04,-200.48 2234.71,-209.16"/>
<polygon fill="black" stroke="black" points="2231.99,-211.36 2240.97,-216.97 2237.45,-206.98 2231.99,-211.36"/>
</g>
<!-- Trader Ends Trading -->
<g id="node28" class="node">
<title>Trader Ends Trading</title>
<ellipse fill="none" stroke="black" cx="2325.59" cy="-306" rx="84.49" ry="18"/>
<text text-anchor="middle" x="2325.59" y="-302.3" font-family="Times,serif" font-size="14.00">Trader Ends Trading</text>
</g>
<!-- Trader Ends Trading&#45;&gt;Payment -->
<g id="edge21" class="edge">
<title>Trader Ends Trading&#45;&gt;Payment</title>
<path fill="none" stroke="black" d="M2308.65,-288.05C2299.62,-279.03 2288.38,-267.79 2278.58,-257.99"/>
<polygon fill="black" stroke="black" points="2280.97,-255.43 2271.42,-250.83 2276.02,-260.38 2280.97,-255.43"/>
</g>
<!-- Trader Ends Trading&#45;&gt;End of Trading -->
<g id="edge20" class="edge">
<title>Trader Ends Trading&#45;&gt;End of Trading</title>
<path fill="none" stroke="black" d="M2322.37,-287.84C2318.88,-269.84 2312.97,-240.79 2306.59,-216 2304.38,-207.4 2301.68,-198.1 2299.13,-189.73"/>
<polygon fill="black" stroke="black" points="2302.45,-188.6 2296.14,-180.08 2295.76,-190.67 2302.45,-188.6"/>
</g>
<!-- Process Manager Election Results -->
<g id="node30" class="node">
<title>Process Manager Election Results</title>
<ellipse fill="none" stroke="black" cx="1846.59" cy="-306" rx="131.88" ry="18"/>
<text text-anchor="middle" x="1846.59" y="-302.3" font-family="Times,serif" font-size="14.00">Process Manager Election Results</text>
</g>
<!-- Process Manager Election Results&#45;&gt;End the Election Process -->
<g id="edge24" class="edge">
<title>Process Manager Election Results&#45;&gt;End the Election Process</title>
<path fill="none" stroke="black" d="M1793.55,-289.46C1756.15,-278.51 1706.02,-263.83 1667.23,-252.47"/>
<polygon fill="black" stroke="black" points="1668.21,-249.11 1657.63,-249.65 1666.24,-255.82 1668.21,-249.11"/>
</g>
</g>
</svg>
