<?xml version="1.0" encoding="UTF-8" standalone="no"?>
<!DOCTYPE svg PUBLIC "-//W3C//DTD SVG 1.1//EN"
 "http://www.w3.org/Graphics/SVG/1.1/DTD/svg11.dtd">
<!-- Generated by graphviz version 8.0.5 (20230430.1635)
 -->
<!-- Title: Linked Clauses Pages: 1 -->
<svg width="656pt" height="260pt"
 viewBox="0.00 0.00 656.12 260.00" xmlns="http://www.w3.org/2000/svg" xmlns:xlink="http://www.w3.org/1999/xlink">
<g id="graph0" class="graph" transform="scale(1 1) rotate(0) translate(4 256)">
<title>Linked Clauses</title>
<polygon fill="lightblue" stroke="none" points="-4,4 -4,-256 652.12,-256 652.12,4 -4,4"/>
<!-- Trader Ends Trading -->
<g id="node1" class="node">
<title>Trader Ends Trading</title>
<polygon fill="white" stroke="black" points="128.5,-252 0,-252 0,-216 128.5,-216 128.5,-252"/>
<text text-anchor="middle" x="64.25" y="-228.95" font-family="Times,serif" font-size="14.00">Trader Ends Trading</text>
</g>
<!-- End of Trading -->
<g id="node2" class="node">
<title>End of Trading</title>
<polygon fill="white" stroke="black" points="152.5,-180 54,-180 54,-144 152.5,-144 152.5,-180"/>
<text text-anchor="middle" x="103.25" y="-156.95" font-family="Times,serif" font-size="14.00">End of Trading</text>
</g>
<!-- Trader Ends Trading&#45;&gt;End of Trading -->
<g id="edge1" class="edge">
<title>Trader Ends Trading&#45;&gt;End of Trading</title>
<path fill="none" stroke="black" d="M73.89,-215.7C78.28,-207.81 83.58,-198.3 88.46,-189.55"/>
<polygon fill="black" stroke="black" points="91.91,-191.54 93.72,-181.1 85.8,-188.14 91.91,-191.54"/>
</g>
<!-- Payment -->
<g id="node3" class="node">
<title>Payment</title>
<polygon fill="white" stroke="black" points="105.25,-36 41.25,-36 41.25,0 105.25,0 105.25,-36"/>
<text text-anchor="middle" x="73.25" y="-12.95" font-family="Times,serif" font-size="14.00">Payment</text>
</g>
<!-- Trader Ends Trading&#45;&gt;Payment -->
<g id="edge2" class="edge">
<title>Trader Ends Trading&#45;&gt;Payment</title>
<path fill="none" stroke="black" d="M56.36,-215.75C52.14,-205.58 47.39,-192.33 45.25,-180 37.09,-133.04 51.7,-78.37 62.71,-46.34"/>
<polygon fill="black" stroke="black" points="66.19,-47.99 66.26,-37.39 59.6,-45.63 66.19,-47.99"/>
</g>
<!-- End of Trading&#45;&gt;Payment -->
<g id="edge11" class="edge">
<title>End of Trading&#45;&gt;Payment</title>
<path fill="none" stroke="black" d="M94.96,-143.59C87.32,-119.4 77.73,-75.36 73.62,-46.65"/>
<polygon fill="black" stroke="black" points="77.01,-46.59 72.28,-37.11 70.06,-47.47 77.01,-46.59"/>
</g>
<!-- Log Results -->
<g id="node4" class="node">
<title>Log Results</title>
<polygon fill="white" stroke="black" points="191.88,-108 110.62,-108 110.62,-72 191.88,-72 191.88,-108"/>
<text text-anchor="middle" x="151.25" y="-84.95" font-family="Times,serif" font-size="14.00">Log Results</text>
</g>
<!-- End of Trading&#45;&gt;Log Results -->
<g id="edge10" class="edge">
<title>End of Trading&#45;&gt;Log Results</title>
<path fill="none" stroke="black" d="M115.12,-143.7C120.64,-135.64 127.32,-125.89 133.43,-116.98"/>
<polygon fill="black" stroke="black" points="136.75,-119.33 139.52,-109.1 130.98,-115.37 136.75,-119.33"/>
</g>
<!-- Distribute Gains -->
<g id="node5" class="node">
<title>Distribute Gains</title>
<polygon fill="white" stroke="black" points="410.88,-108 305.62,-108 305.62,-72 410.88,-72 410.88,-108"/>
<text text-anchor="middle" x="358.25" y="-84.95" font-family="Times,serif" font-size="14.00">Distribute Gains</text>
</g>
<!-- End of Trading&#45;&gt;Distribute Gains -->
<g id="edge9" class="edge">
<title>End of Trading&#45;&gt;Distribute Gains</title>
<path fill="none" stroke="black" d="M152.72,-147.42C193.26,-136.29 250.91,-120.47 294.84,-108.41"/>
<polygon fill="black" stroke="black" points="295.69,-111.53 304.4,-105.51 293.83,-104.78 295.69,-111.53"/>
</g>
<!-- Payment&#45;&gt;End of Trading -->
<g id="edge12" class="edge">
<title>Payment&#45;&gt;End of Trading</title>
<path fill="none" stroke="black" d="M81.45,-36.11C89.07,-60.14 98.67,-104.15 102.83,-132.99"/>
<polygon fill="black" stroke="black" points="99.45,-133.11 104.19,-142.59 106.39,-132.23 99.45,-133.11"/>
</g>
<!-- Log Results&#45;&gt;Payment -->
<g id="edge3" class="edge">
<title>Log Results&#45;&gt;Payment</title>
<path fill="none" stroke="black" d="M131.97,-71.7C122.5,-63.2 110.93,-52.81 100.57,-43.51"/>
<polygon fill="black" stroke="black" points="103.36,-41.42 93.58,-37.35 98.68,-46.63 103.36,-41.42"/>
</g>
<!-- Draft Fee -->
<g id="node6" class="node">
<title>Draft Fee</title>
<polygon fill="white" stroke="black" points="648.12,-36 580.38,-36 580.38,0 648.12,0 648.12,-36"/>
<text text-anchor="middle" x="614.25" y="-12.95" font-family="Times,serif" font-size="14.00">Draft Fee</text>
</g>
<!-- Distribute Gains&#45;&gt;Draft Fee -->
<g id="edge4" class="edge">
<title>Distribute Gains&#45;&gt;Draft Fee</title>
<path fill="none" stroke="black" d="M411.32,-77.85C452.37,-68.76 510.73,-54.84 569.86,-36.24"/>
<polygon fill="black" stroke="black" points="570.67,-39.34 579.13,-32.96 568.54,-32.67 570.67,-39.34"/>
</g>
<!-- Support Share -->
<g id="node7" class="node">
<title>Support Share</title>
<polygon fill="white" stroke="black" points="216.88,-36 123.62,-36 123.62,0 216.88,0 216.88,-36"/>
<text text-anchor="middle" x="170.25" y="-12.95" font-family="Times,serif" font-size="14.00">Support Share</text>
</g>
<!-- Distribute Gains&#45;&gt;Support Share -->
<g id="edge5" class="edge">
<title>Distribute Gains&#45;&gt;Support Share</title>
<path fill="none" stroke="black" d="M311.29,-71.52C285.74,-62 253.93,-50.16 226.99,-40.13"/>
<polygon fill="black" stroke="black" points="228.53,-36.59 217.93,-36.38 226.08,-43.15 228.53,-36.59"/>
</g>
<!-- Maintenance Share -->
<g id="node8" class="node">
<title>Maintenance Share</title>
<polygon fill="white" stroke="black" points="355.75,-36 234.75,-36 234.75,0 355.75,0 355.75,-36"/>
<text text-anchor="middle" x="295.25" y="-12.95" font-family="Times,serif" font-size="14.00">Maintenance Share</text>
</g>
<!-- Distribute Gains&#45;&gt;Maintenance Share -->
<g id="edge6" class="edge">
<title>Distribute Gains&#45;&gt;Maintenance Share</title>
<path fill="none" stroke="black" d="M342.68,-71.7C335.2,-63.39 326.1,-53.28 317.88,-44.14"/>
<polygon fill="black" stroke="black" points="320.94,-42.2 311.64,-37.1 315.73,-46.88 320.94,-42.2"/>
</g>
<!-- Reserve Share -->
<g id="node9" class="node">
<title>Reserve Share</title>
<polygon fill="white" stroke="black" points="468.25,-36 374.25,-36 374.25,0 468.25,0 468.25,-36"/>
<text text-anchor="middle" x="421.25" y="-12.95" font-family="Times,serif" font-size="14.00">Reserve Share</text>
</g>
<!-- Distribute Gains&#45;&gt;Reserve Share -->
<g id="edge7" class="edge">
<title>Distribute Gains&#45;&gt;Reserve Share</title>
<path fill="none" stroke="black" d="M373.82,-71.7C381.3,-63.39 390.4,-53.28 398.62,-44.14"/>
<polygon fill="black" stroke="black" points="400.77,-46.88 404.86,-37.1 395.56,-42.2 400.77,-46.88"/>
</g>
<!-- Trader Fee -->
<g id="node10" class="node">
<title>Trader Fee</title>
<polygon fill="white" stroke="black" points="561.88,-36 486.62,-36 486.62,0 561.88,0 561.88,-36"/>
<text text-anchor="middle" x="524.25" y="-12.95" font-family="Times,serif" font-size="14.00">Trader Fee</text>
</g>
<!-- Distribute Gains&#45;&gt;Trader Fee -->
<g id="edge8" class="edge">
<title>Distribute Gains&#45;&gt;Trader Fee</title>
<path fill="none" stroke="black" d="M399.71,-71.52C422.9,-61.74 451.92,-49.5 476.12,-39.3"/>
<polygon fill="black" stroke="black" points="477.3,-42.17 485.16,-35.06 474.58,-35.72 477.3,-42.17"/>
</g>
</g>
</svg>
